<?xml version="1.0" encoding="UTF-8" standalone="no"?>
<!DOCTYPE svg PUBLIC "-//W3C//DTD SVG 1.1//EN" "http://www.w3.org/Graphics/SVG/1.1/DTD/svg11.dtd">
<svg width="100%" height="100%" viewBox="0 0 8334 8334" version="1.1" xmlns="http://www.w3.org/2000/svg" xmlns:xlink="http://www.w3.org/1999/xlink" xml:space="preserve" xmlns:serif="http://www.serif.com/" style="fill-rule:evenodd;clip-rule:evenodd;stroke-linejoin:round;stroke-miterlimit:2;">
    <g transform="matrix(4.16667,0,0,4.16667,0,0)">
        <g transform="matrix(1.54412,0,0,1.54412,-544.124,-457.944)">
            <path d="M702.261,911.93L793.53,1013.92C811.77,985.696 816.599,959.552 816.681,959.081C817.737,953.003 822.166,948.062 828.092,946.351C834.019,944.637 840.402,946.456 844.535,951.032L896.904,1008.99C900.199,1012.63 901.652,1017.58 900.85,1022.43C900.438,1024.92 894.114,1060.88 868.087,1097.24L997.006,1241.31C1023.09,1209.13 1029.68,1174.66 1030.08,1172.43C1031.17,1166.38 1035.61,1161.45 1041.53,1159.76C1047.45,1158.07 1053.81,1159.86 1057.93,1164.43L1110.3,1222.38C1113.6,1226.03 1115.05,1230.98 1114.25,1235.83C1113.79,1238.62 1105.86,1283.6 1070.98,1323.98L1169.43,1433.99L1526.92,1010.99L1112.9,447.388L702.261,911.93Z" style="fill:rgb(196,95,40);fill-rule:nonzero;"/>
        </g>
        <g transform="matrix(1.54412,0,0,1.54412,-544.124,-457.944)">
            <path d="M630.973,699.445C641.43,661.754 653.34,626.611 666.573,594.234C666.365,594.057 666.149,593.891 665.948,593.701C621.342,551.505 565.854,516.331 532.568,496.925L598.106,857.462C603.972,816.641 614.078,760.344 630.973,699.445Z" style="fill:rgb(254,201,112);fill-rule:nonzero;"/>
        </g>
        <g transform="matrix(1.54412,0,0,1.54412,-544.124,-457.944)">
            <path d="M504.328,521.92L472.756,507.971L538.683,956.37C538.756,956.857 538.805,957.348 538.832,957.842C538.833,957.842 538.955,959.203 539.442,961.341C553.409,952.139 567.32,945.66 580.546,941.212L504.328,521.92Z" style="fill:rgb(115,58,23);fill-rule:nonzero;"/>
        </g>
        <g transform="matrix(1.54412,0,0,1.54412,-544.124,-457.944)">
            <path d="M643.023,964.385C624.507,963.465 592.625,965.868 559.736,986.605C569.375,990.812 582.115,991.79 597.787,989.48C618.701,986.398 633.105,976.335 643.023,964.385Z" style="fill:rgb(115,58,23);fill-rule:nonzero;"/>
        </g>
        <g transform="matrix(1.54412,0,0,1.54412,-544.124,-457.944)">
            <path d="M678.462,736.978C660.374,779.471 647.578,819.631 638.631,853.382C661.105,813.5 691.73,762.444 728.547,709.153C810.923,589.918 893.13,502.761 973.874,448.854L957.254,421.599C805.055,499.29 721.778,635.226 678.462,736.978Z" style="fill:rgb(254,201,112);fill-rule:nonzero;"/>
        </g>
        <g transform="matrix(1.54412,0,0,1.54412,-544.124,-457.944)">
            <path d="M755.357,727.096C693.668,816.331 649.685,899.144 632.925,932.083C644.408,931.844 653.611,932.78 659.557,933.669C663.611,921.424 664.514,911.766 664.6,910.723C664.602,910.706 664.605,910.69 664.606,910.674C664.882,907.309 666.208,904.012 668.594,901.314L1064.94,452.945L1054.1,441.03C958.789,483.275 855.741,581.884 755.357,727.096Z" style="fill:rgb(254,201,112);fill-rule:nonzero;"/>
        </g>
        <g transform="matrix(1.54412,0,0,1.54412,-544.124,-457.944)">
            <path d="M858.809,445.365L835.745,411.141C754.865,468.175 704.032,573.283 672.424,673.629C697.446,624.429 726.65,579.699 759.614,540.168C789.61,504.195 822.79,472.544 858.809,445.365Z" style="fill:rgb(254,201,112);fill-rule:nonzero;"/>
        </g>
        <g transform="matrix(1.54412,0,0,1.54412,-544.124,-457.944)">
            <path d="M974.077,1264.05L846.895,1121.93C830.69,1137.69 809.807,1151.98 782.947,1161.74C762.737,1169.07 751.105,1175.34 743.524,1180.46L860.982,1302.09C875.261,1302.53 898.055,1299.44 932.054,1287.31C948.66,1281.39 962.498,1273.25 974.077,1264.05Z" style="fill:rgb(196,95,40);fill-rule:nonzero;"/>
        </g>
        <g transform="matrix(1.54412,0,0,1.54412,-544.124,-457.944)">
            <path d="M1080.79,1237.83L1053.2,1207.31C1040.32,1240.74 1010,1293.75 942.89,1317.69C917.344,1326.8 894.981,1332.2 876.033,1333.85L918.085,1379.14C918.999,1380.13 920.361,1380.6 921.732,1380.39C922.43,1380.09 924.383,1378.42 925.951,1377.08C934.135,1370.1 947.833,1358.43 985.334,1344.81C1053.74,1319.98 1075.25,1259.04 1080.79,1237.83Z" style="fill:rgb(228,155,76);fill-rule:nonzero;"/>
        </g>
        <g transform="matrix(1.54412,0,0,1.54412,-544.124,-457.944)">
            <path d="M996.343,1375.13C971.966,1383.98 960.068,1391.28 952.71,1396.87L1029.73,1476.83C1044.36,1481.51 1104.32,1497.27 1147.75,1458.14L1047.77,1346.41C1033.69,1357.7 1016.74,1367.73 996.343,1375.13Z" style="fill:rgb(196,95,40);fill-rule:nonzero;"/>
        </g>
        <g transform="matrix(1.54412,0,0,1.54412,-544.124,-457.944)">
            <path d="M833.623,1088.97C834.251,1088.02 834.986,1087.14 835.831,1086.32C855.639,1062.18 864.189,1036.68 867.387,1024.43L839.806,993.909C826.925,1027.35 796.609,1080.35 729.494,1104.29C703.947,1113.41 681.585,1118.81 662.637,1120.46L704.689,1165.74C705.602,1166.73 706.967,1167.2 708.336,1166.99C709.034,1166.69 710.987,1165.02 712.555,1163.68C720.739,1156.71 734.437,1145.03 771.938,1131.42C799.392,1121.45 819.278,1105.66 833.623,1088.97Z" style="fill:rgb(228,155,76);fill-rule:nonzero;"/>
        </g>
        <g transform="matrix(1.54412,0,0,1.54412,-544.124,-457.944)">
            <path d="M773.077,1039.44L689.479,946.014C678.103,977.914 652.343,1014.04 602.491,1021.39C598.59,1021.97 594.799,1022.37 591.101,1022.62L654.835,1088.62C669.188,1087.96 689.92,1084.16 718.658,1073.91C741.622,1065.72 759.388,1053.22 773.077,1039.44Z" style="fill:rgb(196,95,40);fill-rule:nonzero;"/>
        </g>
        <g transform="matrix(1.54412,0,0,1.54412,-544.124,-457.944)">
            <path d="M1169.43,1433.99L1070.98,1323.98C1105.86,1283.6 1113.79,1238.62 1114.25,1235.83C1115.05,1230.98 1113.6,1226.03 1110.3,1222.38L1057.93,1164.43C1053.81,1159.86 1047.45,1158.07 1041.53,1159.76C1035.61,1161.45 1031.17,1166.38 1030.08,1172.43C1029.68,1174.66 1023.09,1209.13 997.006,1241.31L868.087,1097.24C894.114,1060.88 900.438,1024.92 900.85,1022.43C901.652,1017.58 900.199,1012.63 896.904,1008.99L844.535,951.032C840.402,946.456 834.019,944.637 828.092,946.351C822.166,948.062 817.737,953.003 816.681,959.081C816.599,959.552 811.77,985.696 793.53,1013.92L702.261,911.93L1112.9,447.388L1526.92,1010.99L1169.43,1433.99ZM1029.73,1476.83L952.71,1396.87C960.068,1391.28 971.966,1383.98 996.343,1375.13C1016.74,1367.73 1033.69,1357.7 1047.77,1346.41L1147.75,1458.14C1104.32,1497.27 1044.36,1481.51 1029.73,1476.83ZM921.732,1380.39C920.361,1380.6 918.999,1380.13 918.085,1379.14L876.033,1333.85C894.981,1332.2 917.344,1326.8 942.89,1317.69C1010,1293.75 1040.32,1240.74 1053.2,1207.31L1080.79,1237.83C1075.25,1259.04 1053.74,1319.98 985.334,1344.81C947.833,1358.43 934.135,1370.1 925.951,1377.08C924.383,1378.42 922.43,1380.09 921.732,1380.39ZM860.982,1302.09L743.524,1180.46C751.105,1175.34 762.737,1169.07 782.947,1161.74C809.807,1151.98 830.69,1137.69 846.895,1121.93L974.077,1264.05C962.498,1273.25 948.66,1281.39 932.054,1287.31C898.055,1299.44 875.261,1302.53 860.982,1302.09ZM712.555,1163.68C710.987,1165.02 709.034,1166.69 708.336,1166.99C706.967,1167.2 705.602,1166.73 704.689,1165.74L662.637,1120.46C681.585,1118.81 703.947,1113.41 729.494,1104.29C796.609,1080.35 826.925,1027.35 839.806,993.909L867.387,1024.43C864.189,1036.68 855.639,1062.18 835.831,1086.32C834.986,1087.14 834.251,1088.02 833.623,1088.97C819.278,1105.66 799.392,1121.45 771.938,1131.42C734.437,1145.03 720.739,1156.71 712.555,1163.68ZM591.101,1022.62C594.799,1022.37 598.59,1021.97 602.491,1021.39C652.343,1014.04 678.103,977.914 689.479,946.014L773.077,1039.44C759.388,1053.22 741.622,1065.72 718.658,1073.91C689.92,1084.16 669.188,1087.96 654.835,1088.62L591.101,1022.62ZM559.736,986.605C592.625,965.868 624.507,963.465 643.023,964.385C633.105,976.335 618.701,986.398 597.787,989.48C582.115,991.79 569.375,990.812 559.736,986.605ZM538.832,957.842C538.805,957.348 538.756,956.857 538.683,956.37L472.756,507.971L504.328,521.92L580.546,941.212C567.32,945.66 553.409,952.139 539.442,961.341C538.955,959.203 538.833,957.842 538.832,957.842ZM665.948,593.701C666.149,593.891 666.365,594.057 666.573,594.234C653.34,626.611 641.43,661.754 630.973,699.445C614.078,760.344 603.972,816.641 598.106,857.462L532.568,496.925C565.854,516.331 621.342,551.505 665.948,593.701ZM835.745,411.141L858.809,445.365C822.79,472.544 789.61,504.195 759.614,540.168C726.65,579.699 697.446,624.429 672.424,673.629C704.032,573.283 754.865,468.175 835.745,411.141ZM957.254,421.599L973.874,448.854C893.13,502.761 810.923,589.918 728.547,709.153C691.73,762.444 661.105,813.5 638.631,853.382C647.578,819.631 660.374,779.471 678.462,736.978C721.778,635.226 805.055,499.29 957.254,421.599ZM1054.1,441.03L1064.94,452.945L668.594,901.314C666.208,904.012 664.882,907.309 664.606,910.674C664.605,910.69 664.602,910.706 664.6,910.723C664.514,911.766 663.611,921.424 659.557,933.669C653.611,932.78 644.408,931.844 632.925,932.083C649.685,899.144 693.668,816.331 755.357,727.096C855.741,581.884 958.789,483.275 1054.1,441.03ZM1127.06,412.176C1124.18,408.247 1119.66,405.834 1114.79,405.613C1109.89,405.403 1105.21,407.39 1101.98,411.042L1086.43,428.634L1070.28,410.876C1065.75,405.884 1058.58,404.242 1052.32,406.764C1035.38,413.588 1018.36,421.955 1001.26,431.813L977.118,392.215C972.817,385.16 963.875,382.499 956.414,386.05C931.643,397.846 907.864,411.424 885.101,426.66L853.567,379.87C848.729,372.692 839.088,370.617 831.723,375.157C782.55,405.504 739.265,453.556 703.067,517.977C695.099,532.16 687.476,547.177 680.186,562.935C609.812,499.142 521.788,453.893 517.937,451.929C512.479,449.142 505.906,449.694 500.984,453.353C496.064,457.013 493.645,463.145 494.741,469.18L497.358,483.576L459.068,466.66C453.697,464.289 447.459,465.022 442.785,468.577C438.11,472.132 435.74,477.947 436.594,483.758L506.688,960.488C507.134,965.79 510.163,988.086 529.162,1004.92L603.772,1082.18C598.889,1087.27 597.819,1095.1 601.466,1101.4C602.203,1102.67 603.873,1105.15 606.981,1107.93L681.051,1187.69C687.977,1195.15 697.643,1199.29 707.686,1199.29C709.502,1199.29 711.333,1199.16 713.16,1198.88C714.129,1198.74 715.033,1198.53 715.927,1198.32L814.156,1300.03C812.061,1304.65 812.167,1310.14 814.864,1314.79C815.602,1316.07 817.271,1318.54 820.377,1321.32L894.45,1401.09C901.377,1408.55 911.043,1412.69 921.082,1412.69C921.75,1412.69 922.42,1412.65 923.091,1412.62L1009.2,1502.01C1010.86,1503.73 1012.88,1505.06 1015.11,1505.91C1017.2,1506.7 1042.95,1516.16 1076.12,1516.16C1109.47,1516.16 1150.31,1506.59 1182.09,1468.98L1559.77,1022.1C1564.58,1016.41 1564.86,1008.15 1560.45,1002.14L1127.06,412.176Z" style="fill:rgb(51,17,16);fill-rule:nonzero;"/>
        </g>
        <g transform="matrix(1.54412,0,0,1.54412,-544.124,-457.944)">
            <path d="M846.895,1121.93C830.69,1137.69 809.807,1151.98 782.947,1161.74C762.737,1169.07 751.105,1175.34 743.524,1180.46L767.461,1205.25C778.159,1202.46 791.005,1200.01 806.252,1198.45C840.988,1194.9 860.841,1169.83 871.419,1149.33L846.895,1121.93Z" style="fill:rgb(115,58,23);fill-rule:nonzero;"/>
        </g>
        <g transform="matrix(1.54412,0,0,1.54412,-544.124,-457.944)">
            <path d="M1069.06,1370.19L1047.77,1346.41C1033.69,1357.7 1016.74,1367.73 996.343,1375.13C971.966,1383.98 960.068,1391.28 952.71,1396.87L974.911,1419.92C982.189,1418.65 990.045,1417.54 998.554,1416.67C1033.26,1413.12 1055.43,1391.46 1069.06,1370.19Z" style="fill:rgb(115,58,23);fill-rule:nonzero;"/>
        </g>
        <g transform="matrix(1.54412,0,0,1.54412,-544.124,-457.944)">
            <path d="M1105.45,691.596C1192.44,698.971 1274.29,724.87 1345.71,764.302L1112.9,447.388L870.512,721.595C940.669,695.688 1020.6,684.402 1105.45,691.596Z" style="fill:rgb(224,139,38);fill-rule:nonzero;"/>
        </g>
    </g>
</svg>
